<svg xmlns="http://www.w3.org/2000/svg" xmlns:xlink="http://www.w3.org/1999/xlink" width="720" height="250">\n<path  d="M 0 0
L 720 0
L 720 250
L 0 250
L 0 0" style="stroke-width:0;stroke:rgba(255,255,255,1.0);fill:rgba(255,255,255,1.0)"/><path  d="M 5 5
L 715 5
L 715 245
L 5 245
L 5 5" style="stroke-width:0;stroke:rgba(255,255,255,1.0);fill:rgba(255,255,255,1.0)"/><path  d="M 5 5
L 9 9
L 12 14
L 15 18
L 18 22
L 21 26
L 24 29
L 27 32
L 30 34
L 33 36
L 36 37
L 39 36
L 43 36
L 46 35
L 49 33
L 52 32
L 55 32
L 58 32
L 61 34
L 64 37
L 67 41
L 70 47
L 73 55
L 76 63
L 80 72
L 83 82
L 86 90
L 89 98
L 92 105
L 95 110
L 98 112
L 101 112
L 104 110
L 107 106
L 110 101
L 114 95
L 117 89
L 120 83
L 123 77
L 126 73
L 129 71
L 132 71
L 135 72
L 138 75
L 141 79
L 144 83
L 147 88
L 151 92
L 154 95
L 157 97
L 160 97
L 163 95
L 166 92
L 169 88
L 172 84
L 175 81
L 178 78
L 181 77
L 185 78
L 188 81
L 191 89
L 194 100
L 197 114
L 200 131
L 203 149
L 206 167
L 209 186
L 212 203
L 215 218
L 218 231
L 222 239
L 225 244
L 228 245
L 231 242
L 234 237
L 237 231
L 240 223
L 243 215
L 246 208
L 249 201
L 252 197
L 256 195
L 259 195
L 262 197
L 265 200
L 268 203
L 271 208
L 274 212
L 277 216
L 280 219
L 283 221
L 286 221
L 289 220
L 293 218
L 296 216
L 299 213
L 302 209
L 305 207
L 308 204
L 311 203
L 314 203
L 317 204
L 320 207
L 323 210
L 327 214
L 330 218
L 333 222
L 336 226
L 339 229
L 342 231
L 345 232
L 348 231
L 351 229
L 354 225
L 357 221
L 360 216
L 364 210
L 367 205
L 370 200
L 373 195
L 376 191
L 379 189
L 382 187
L 385 186
L 388 185
L 391 185
L 394 185
L 398 185
L 401 185
L 404 185
L 407 184
L 410 183
L 413 182
L 416 180
L 419 178
L 422 175
L 425 172
L 428 169
L 431 166
L 435 162
L 438 159
L 441 156
L 444 153
L 447 150
L 450 147
L 453 145
L 456 144
L 459 143
L 462 142
L 465 142
L 469 143
L 472 145
L 475 148
L 478 151
L 481 155
L 484 159
L 487 163
L 490 167
L 493 171
L 496 175
L 499 178
L 502 180
L 506 183
L 509 184
L 512 186
L 515 186
L 518 187
L 521 187
L 524 187
L 527 186
L 530 186
L 533 185
L 536 184
L 540 182
L 543 180
L 546 177
L 549 174
L 552 169
L 555 163
L 558 157
L 561 149
L 564 139
L 567 129
L 570 117
L 573 105
L 577 94
L 580 82
L 583 71
L 586 60
L 589 51
L 592 44
L 595 38
L 598 34
L 601 32
L 604 31
L 607 31
L 611 32
L 614 34
L 617 37
L 620 40
L 623 44
L 626 48
L 629 52
L 632 57
L 635 61
L 638 65
L 641 69
L 644 72
L 648 76
L 651 78
L 654 80
L 657 81
L 660 82
L 663 82
L 666 82
L 669 81
L 672 80
L 675 79
L 678 78
L 682 77
L 685 76
L 688 75
L 691 74
L 694 74
L 697 74
L 700 74
L 703 74
L 706 75
L 709 75
L 712 75
L 715 76" style="stroke-width:3;stroke:rgba(230,66,66,1.0);fill:none"/></svg>